<?xml version="1.0" encoding="UTF-8" standalone="no"?>
<!DOCTYPE svg PUBLIC "-//W3C//DTD SVG 1.1//EN" "http://www.w3.org/Graphics/SVG/1.1/DTD/svg11.dtd">
<svg version="1.1" xmlns="http://www.w3.org/2000/svg" xmlns:xlink="http://www.w3.org/1999/xlink" preserveAspectRatio="xMidYMid meet" viewBox="0 0 640 640" width="512" height="512"><defs><path d="M548.69 335.98C548.69 400.07 496.67 452.11 432.59 452.11C368.5 452.11 316.48 400.07 316.48 335.98C316.48 271.88 368.5 219.85 432.59 219.85C496.67 219.85 548.69 271.88 548.69 335.98Z" id="a67oc61Z9"></path><path d="M424.32 135.88L432.25 136.7L440.1 137.84L447.84 139.3L455.47 141.05L462.99 143.11L470.38 145.46L477.65 148.09L484.78 151L491.78 154.19L498.63 157.64L505.32 161.35L511.86 165.31L518.23 169.52L524.43 173.97L530.44 178.65L536.28 183.57L541.92 188.7L547.37 194.04L552.61 199.6L557.65 205.35L558.11 205.92L554.68 204.17L544.76 199.54L534.52 195.22L523.95 191.23L513.04 187.6L501.8 184.37L490.23 181.56L478.33 179.2L466.1 177.33L453.53 175.98L440.63 175.17L427.39 174.93L422.57 175.02L419.78 175.15L418.38 175.06L411.97 174.93L405.56 175.06L399.22 175.46L392.95 176.12L386.75 177.03L380.64 178.2L374.61 179.61L368.67 181.25L362.83 183.13L357.09 185.24L351.45 187.58L345.93 190.13L340.52 192.9L335.23 195.87L330.06 199.05L325.03 202.42L320.14 205.99L315.38 209.74L310.77 213.68L306.31 217.79L302.01 222.08L297.87 226.53L293.89 231.15L290.09 235.91L286.46 240.83L283.01 245.9L279.75 251.11L276.68 256.45L273.81 261.92L271.13 267.52L268.67 273.24L266.41 279.07L264.37 285.01L262.55 291.06L260.96 297.2L259.6 303.44L258.48 309.77L257.59 316.18L256.96 322.66L256.57 329.23L256.44 335.86L256.57 342.49L256.96 349.05L257.59 355.54L258.48 361.95L259.6 368.27L260.97 374.51L262.56 380.66L264.38 386.7L266.42 392.64L268.68 398.48L271.14 404.19L273.82 409.79L276.69 415.26L279.76 420.61L283.02 425.81L286.47 430.88L290.1 435.8L293.91 440.57L297.88 445.18L302.03 449.64L306.33 453.92L310.79 458.04L315.4 461.97L320.15 465.73L325.05 469.3L330.08 472.67L335.25 475.85L340.54 478.83L345.95 481.59L351.47 484.15L357.11 486.48L362.85 488.59L368.69 490.47L374.63 492.12L380.66 493.53L386.78 494.7L392.97 495.61L399.24 496.27L405.58 496.67L411.99 496.81L418.4 496.67L419.61 496.6L424.06 496.76L428.88 496.81L442.11 496.45L455 495.52L467.56 494.05L479.78 492.07L491.66 489.61L503.2 486.69L514.4 483.36L525.28 479.63L535.81 475.54L546.01 471.13L555.88 466.41L559.21 464.67L557.65 466.6L552.61 472.36L547.37 477.91L541.92 483.26L536.28 488.39L530.44 493.3L524.43 497.99L518.23 502.44L511.86 506.65L505.32 510.61L498.63 514.32L491.78 517.77L484.78 520.96L477.65 523.87L470.38 526.5L462.99 528.85L455.47 530.9L447.84 532.66L440.1 534.11L432.25 535.25L424.32 536.08L416.29 536.58L408.18 536.74L401.36 536.6L399.09 536.69L393 536.74L376.24 536.29L359.92 535.14L344.03 533.3L328.57 530.83L313.53 527.75L298.92 524.12L284.73 519.95L270.97 515.31L257.64 510.21L244.72 504.7L232.23 498.81L220.15 492.59L208.5 486.07L197.27 479.28L186.45 472.28L176.05 465.08L166.07 457.74L156.5 450.29L147.35 442.76L138.61 435.2L130.28 427.64L122.37 420.11L114.86 412.67L107.76 405.34L101.08 398.16L94.8 391.18L88.93 384.42L83.46 377.93L78.4 371.73L73.75 365.88L69.49 360.41L65.64 355.36L62.19 350.76L59.14 346.64L56.5 343.06L54.25 340.05L52.39 337.63L50.94 335.87L49.88 334.78L49.21 334.4L49.88 334.03L50.95 332.95L52.42 331.2L54.3 328.8L56.57 325.81L59.26 322.25L62.34 318.17L65.83 313.6L69.73 308.58L74.03 303.15L78.74 297.34L83.86 291.19L89.39 284.75L95.32 278.05L101.66 271.12L108.41 264L115.58 256.74L123.15 249.36L131.13 241.91L139.53 234.43L148.34 226.95L157.56 219.51L167.2 212.14L177.25 204.89L187.71 197.79L198.59 190.88L209.89 184.2L221.6 177.79L233.73 171.68L246.28 165.9L259.25 160.51L272.63 155.54L286.43 151.01L300.66 146.98L315.3 143.48L330.37 140.54L345.86 138.21L361.76 136.52L378.1 135.51L394.85 135.22L400.95 135.33L401.49 135.35L408.18 135.21L416.29 135.38L424.32 135.88Z" id="cfDwNDv84"></path><path d="M424.87 135.88L432.81 136.7L440.65 137.84L448.39 139.3L456.02 141.05L463.54 143.11L470.94 145.46L478.2 148.09L485.34 151L492.33 154.19L499.18 157.64L505.88 161.35L512.41 165.31L518.78 169.52L524.98 173.97L531 178.65L536.83 183.57L542.48 188.7L547.92 194.04L553.17 199.6L558.2 205.35L558.66 205.92L555.23 204.17L545.32 199.54L535.07 195.22L524.5 191.23L513.6 187.6L502.36 184.37L490.79 181.56L478.89 179.2L466.65 177.33L454.08 175.98L441.18 175.17L427.94 174.93L423.13 175.02L420.34 175.15L418.93 175.06L412.52 174.93L406.12 175.06L399.78 175.46L393.5 176.12L387.31 177.03L381.19 178.2L375.16 179.61L369.23 181.25L363.38 183.13L357.64 185.24L352.01 187.58L346.48 190.13L341.07 192.9L335.78 195.87L330.62 199.05L325.59 202.42L320.69 205.99L315.94 209.74L311.33 213.68L306.87 217.79L302.57 222.08L298.42 226.53L294.45 231.15L292.23 233.93L284.96 237.4L276.85 241.64L268.95 246.14L261.26 250.9L253.8 255.91L246.56 261.16L239.56 266.65L232.8 272.37L226.29 278.31L220.05 284.46L214.08 290.82L208.38 297.39L202.96 304.15L197.84 311.09L193.02 318.22L188.51 325.52L184.31 332.99L180.43 340.62L176.89 348.4L173.69 356.32L170.83 364.39L168.33 372.58L166.19 380.91L164.43 389.35L163.04 397.9L162.04 406.56L161.43 415.31L161.23 424.16L161.43 433L162.04 441.75L163.04 450.41L163.88 455.6L157.06 450.29L147.9 442.76L139.16 435.2L130.84 427.64L122.92 420.11L115.41 412.67L108.32 405.34L101.63 398.16L95.35 391.18L89.48 384.42L84.02 377.93L78.96 371.73L74.3 365.88L70.05 360.41L66.2 355.36L62.75 350.76L59.7 346.64L57.05 343.06L54.8 340.05L52.95 337.63L51.49 335.87L50.43 334.78L49.77 334.4L50.44 334.03L51.51 332.95L52.98 331.2L54.85 328.8L57.13 325.81L59.81 322.25L62.9 318.17L66.39 313.6L70.28 308.58L74.59 303.15L79.3 297.34L84.41 291.19L89.94 284.75L95.87 278.05L102.22 271.12L108.97 264L116.13 256.74L123.7 249.36L131.69 241.91L140.09 234.43L148.9 226.95L158.12 219.51L167.75 212.14L177.8 204.89L188.27 197.79L199.15 190.88L210.45 184.2L222.16 177.79L234.29 171.68L246.84 165.9L259.8 160.51L273.19 155.54L286.99 151.01L301.21 146.98L315.86 143.48L330.92 140.54L346.41 138.21L362.32 136.52L378.65 135.51L395.41 135.22L401.5 135.33L402.04 135.35L408.73 135.21L416.84 135.38L424.87 135.88Z" id="a8CesBh1Gk"></path><path d="M432.81 136.7L440.65 137.84L448.39 139.3L456.02 141.05L463.54 143.11L470.94 145.46L478.2 148.09L485.34 151L492.33 154.19L499.18 157.64L505.88 161.35L512.41 165.31L518.78 169.52L524.98 173.97L531 178.65L536.83 183.57L542.48 188.7L547.93 194.04L553.17 199.6L558.2 205.35L558.66 205.92L555.23 204.17L545.32 199.54L535.08 195.22L524.5 191.23L513.6 187.6L502.36 184.37L490.79 181.56L478.89 179.2L466.65 177.33L454.08 175.98L441.18 175.17L427.94 174.93L423.13 175.02L420.34 175.15L418.93 175.06L412.52 174.93L406.12 175.06L399.78 175.46L393.5 176.12L387.31 177.03L381.19 178.2L375.17 179.61L369.23 181.25L363.38 183.13L357.64 185.24L352.01 187.58L346.48 190.13L341.07 192.9L335.78 195.87L330.62 199.05L325.59 202.42L320.69 205.99L315.94 209.74L311.33 213.68L306.87 217.79L302.57 222.08L298.42 226.53L294.45 231.15L293.23 232.67L284.83 232.33L271.99 232.16L259.15 232.33L246.45 232.84L233.88 233.69L221.47 234.86L209.21 236.36L197.13 238.16L185.23 240.28L173.53 242.69L162.02 245.4L150.73 248.39L139.65 251.67L128.81 255.22L118.22 259.03L111.11 261.83L116.13 256.74L123.7 249.36L131.69 241.91L140.09 234.43L148.9 226.95L158.12 219.51L167.75 212.14L177.8 204.89L188.27 197.79L199.15 190.88L210.45 184.2L222.16 177.79L234.29 171.68L246.84 165.9L259.8 160.51L273.19 155.54L286.99 151.01L301.21 146.98L315.86 143.48L330.92 140.54L346.41 138.21L362.32 136.52L378.65 135.51L395.41 135.22L401.5 135.33L402.04 135.35L408.73 135.21L416.84 135.38L424.87 135.88L424.87 135.88L432.81 136.7Z" id="aXIKzY0La"></path><path d="M518.31 335.98C518.31 381.83 481.1 419.06 435.25 419.06C389.41 419.06 352.19 381.83 352.19 335.98C352.19 290.13 389.41 252.9 435.25 252.9C481.1 252.9 518.31 290.13 518.31 335.98Z" id="c6ERaSUqs"></path><path d="M510.28 335.98C510.28 377.39 476.66 411.02 435.25 411.02C393.84 411.02 360.23 377.39 360.23 335.98C360.23 294.56 393.84 260.94 435.25 260.94C476.66 260.94 510.28 294.56 510.28 335.98Z" id="iHzPqz36W"></path><path d="M451.19 306.72L470.04 339.12L451.44 370.34L413.98 369.16L395.13 336.77L413.73 305.55L451.19 306.72Z" id="a2aBQDTQDg"></path><path d="M440.88 258.49L395.13 335.98" id="b2OBoGLFX"></path><path d="M470.04 339.88L424.29 417.37" id="ePJvA81kT"></path><path d="M451.24 306.62L495.17 386.08" id="g13keZ5YKM"></path><path d="M368.18 291.35L414.61 369.37" id="b1jb4D77W"></path><path d="M452.66 370.26L364.57 368.48" id="aKQD67r1G"></path><path d="M412.96 305.55L507.61 308.69" id="btVOieKZ"></path></defs><g><g><g><use xlink:href="#a67oc61Z9" opacity="1" fill="#29aacb" fill-opacity="1"></use></g><g><use xlink:href="#cfDwNDv84" opacity="1" fill="#c5209c" fill-opacity="1"></use></g><g><use xlink:href="#a8CesBh1Gk" opacity="1" fill="#f2984e" fill-opacity="1"></use></g><g><use xlink:href="#aXIKzY0La" opacity="1" fill="#5bb4e3" fill-opacity="1"></use></g><g><use xlink:href="#c6ERaSUqs" opacity="1" fill="#ffffff" fill-opacity="1"></use><g><use xlink:href="#c6ERaSUqs" opacity="1" fill-opacity="0" stroke="#ffffff" stroke-width="1" stroke-opacity="1.00"></use></g></g><g><use xlink:href="#iHzPqz36W" opacity="1" fill="#328fa2" fill-opacity="1"></use></g><g><use xlink:href="#a2aBQDTQDg" opacity="1" fill="#c5d6da" fill-opacity="1"></use></g><g><g><use xlink:href="#b2OBoGLFX" opacity="1" fill-opacity="0" stroke="#ffffff" stroke-width="1" stroke-opacity="1"></use></g></g><g><g><use xlink:href="#ePJvA81kT" opacity="1" fill-opacity="0" stroke="#ffffff" stroke-width="1" stroke-opacity="1"></use></g></g><g><use xlink:href="#g13keZ5YKM" opacity="1" fill="#328fa2" fill-opacity="1"></use><g><use xlink:href="#g13keZ5YKM" opacity="1" fill-opacity="0" stroke="#ffffff" stroke-width="1" stroke-opacity="1"></use></g></g><g><g><use xlink:href="#b1jb4D77W" opacity="1" fill-opacity="0" stroke="#ffffff" stroke-width="1" stroke-opacity="1"></use></g></g><g><g><use xlink:href="#aKQD67r1G" opacity="1" fill-opacity="0" stroke="#ffffff" stroke-width="1" stroke-opacity="1"></use></g></g><g><g><use xlink:href="#btVOieKZ" opacity="1" fill-opacity="0" stroke="#ffffff" stroke-width="1" stroke-opacity="1.00"></use></g></g></g></g></svg>